<svg version="1.2" baseProfile="tiny" xmlns="http://www.w3.org/2000/svg" width="300" height="300"><rect y="200" fill="#F16529" width="300" height="100"/><rect y="100" fill="#29A9DF" width="300" height="100"/><rect fill="#F0DB4F" width="300" height="100"/><path fill="#E34F26" d="M24.8 282.6l-5.6-62.8h61.6l-5.6 62.8-25.3 7.1"/><path fill="#EF652A" d="M50.1 284.3l20.3-5.6 4.8-53.8h-25.1"/><path fill="#EBEBEB" d="M50.1 248.2h-10.3l-.7-7.9h10.9v-7.6h-19.3l.1 2 1.9 21.3h17.3v-7.8zm0 20.1h-.1l-8.6-2.3-.5-6.1h-7.6l1 12.1 15.8 4.4h.1v-8.1z"/><path fill="#fff" d="M49.9 248.2v7.8h9.6l-1 10-8.6 2.3v8.1l15.8-4.4.1-1.4 1.8-20.3.3-2h-18zm0-15.5v7.7h18.7l.1-1.6.4-4 .1-2h-19.3z"/><polygon fill="#1572B6" points="122.5,182.6 116.4,113.9 183.6,113.9 177.5,182.6 150,190.2"/><polygon fill="#33A9DC" points="150,184.4 172.3,178.2 177.5,119.5 150,119.5"/><polygon fill="#fff" points="150,144.4 161.1,144.4 161.9,135.8 150,135.8 150,127.3 150,127.3 171.1,127.3 170.9,129.6 168.8,152.8 150,152.8"/><polygon fill="#EBEBEB" points="150.1,166.3 150,166.3 140.6,163.7 140,157 135.5,157 131.6,157 132.8,170.2 150,175 150.1,175"/><polygon fill="#fff" points="160.4,152.4 159.4,163.7 150,166.3 150,175 167.3,170.2 167.4,168.8 168.9,152.4"/><polygon fill="#EBEBEB" points="150,127.3 150,132.6 150,135.7 150,135.8 129.7,135.8 129.7,135.8 129.7,135.8 129.5,133.9 129.1,129.6 128.9,127.3"/><polygon fill="#EBEBEB" points="150,144.4 150,149.6 150,152.8 150,152.8 140.8,152.8 140.8,152.8 140.7,152.8 140.6,150.9 140.2,146.6 140,144.4"/><path d="M272.37 44.64c-3.19.25-5.86 1.4-7.86 3.38-2.05 2.03-3.03 4.51-3.03 7.66 0 4.71 1.93 8 6.24 10.61 1.1.66 2.59 1.38 5.17 2.49 3.52 1.51 4.83 2.23 5.66 3.12 1.03 1.1 1.32 2.87.67 4.22-.13.26-.46.7-.75 1-1 1-2.56 1.54-4.51 1.54-3.29 0-5.75-1.35-7.72-4.27-.27-.39-.52-.71-.55-.71-.08 0-6.5 3.7-6.63 3.83-.08.08-.02.25.31.79 2.57 4.32 6.57 6.85 11.99 7.58 1.42.19 4.08.19 5.44 0 3.41-.48 5.97-1.61 7.95-3.54 2.11-2.03 3.15-4.67 3.15-7.97 0-2.11-.35-3.76-1.13-5.38-.54-1.11-1.08-1.87-2.01-2.81-1.78-1.81-4.08-3.17-8.68-5.15-3.48-1.49-4.64-2.13-5.41-2.95-.73-.78-1.05-1.7-.98-2.85.06-.91.31-1.53.87-2.13.8-.87 1.73-1.23 3.16-1.22 1.63 0 2.68.42 3.76 1.5.38.37.87.97 1.1 1.33.26.41.46.64.52.62.22-.09 6.35-4.06 6.35-4.12 0-.03-.31-.52-.69-1.1-.81-1.21-2.27-2.73-3.27-3.4-1.86-1.23-3.84-1.86-6.46-2.06-1.28-.11-1.45-.11-2.66-.01zm-26.27 15.33l-.02 14.92-.19.7c-.24.92-.53 1.47-1.04 1.98-.71.71-1.62 1-3.14 1.01-2.17.01-3.47-.91-4.98-3.49-.25-.4-.46-.73-.49-.73-.03.02-1.56.94-3.39 2.04l-3.33 2.03.25.51c1.51 3.01 4.13 5.29 7.27 6.34 3.32 1.11 7.59 1 10.73-.25 3.76-1.52 5.96-4.66 6.54-9.32.05-.47.08-5.75.08-15.67v-14.96h-8.27l-.02 14.89z" fill="#323330"/></svg>